<svg width="33" height="32" viewBox="0 0 33 32" fill="none" xmlns="http://www.w3.org/2000/svg">
    <path fill-rule="evenodd" clip-rule="evenodd" d="M16.6667 0C7.83013 0 0.666687 7.16344 0.666687 16C0.666687 24.8366 7.83013 32 16.6667 32C25.5032 32 32.6667 24.8366 32.6667 16C32.6667 7.16344 25.5032 0 16.6667 0ZM16.2211 13.5582L16.1875 13.0046C16.0868 11.5697 16.9709 10.259 18.3699 9.75059C18.8847 9.56981 19.7576 9.54721 20.3284 9.70539C20.5522 9.77318 20.9775 9.99916 21.2797 10.2025L21.8281 10.5754L22.4324 10.3833C22.7682 10.2816 23.2159 10.1121 23.4173 9.99916C23.6076 9.89747 23.7754 9.84097 23.7754 9.87487C23.7754 10.0669 23.3614 10.7223 23.0144 11.0838C22.5444 11.5923 22.6787 11.6375 23.63 11.2985C24.2007 11.1064 24.2119 11.1064 24.1 11.3211C24.0329 11.4341 23.6859 11.8295 23.3166 12.1911C22.6899 12.8125 22.6563 12.8803 22.6563 13.4001C22.6563 14.2023 22.2758 15.8745 21.8953 16.7897C21.1902 18.5071 19.6793 20.281 18.1684 21.1736C16.042 22.4277 13.2105 22.7441 10.8267 22.0097C10.0321 21.7611 8.6667 21.1284 8.6667 21.0154C8.6667 20.9815 9.08079 20.9363 9.58441 20.925C10.6364 20.9024 11.6884 20.6086 12.5838 20.0889L13.1881 19.7273L12.4942 19.4901C11.5094 19.1511 10.6252 18.3715 10.4014 17.6371C10.3343 17.3998 10.3566 17.3885 10.9834 17.3885L11.6325 17.3772L11.0841 17.1173C10.435 16.7897 9.84182 16.236 9.55084 15.6711C9.3382 15.2643 9.0696 14.2362 9.14794 14.1571C9.17032 14.1232 9.40535 14.191 9.67395 14.2814C10.4462 14.5638 10.5469 14.496 10.0992 14.0215C9.25986 13.1628 9.00245 11.886 9.40535 10.6771L9.59561 10.1347L10.3343 10.8692C11.8451 12.3493 13.6246 13.2306 15.6615 13.4905L16.2211 13.5582Z" fill="white"/>
</svg>
