 <svg
      width="32"
      height="32"
      viewBox="0 0 32 32"
      fill="none"
      xmlns="http://www.w3.org/2000/svg"
    >
      <path
        d="M27 21.5C26.0721 21.4988 25.1826 21.1297 24.5264 20.4736C23.8703 19.8174 23.5012 18.9279 23.5 18C23.5 17.8674 23.5527 17.7402 23.6464 17.6464C23.7402 17.5527 23.8674 17.5 24 17.5C24.2652 17.5 24.5196 17.3946 24.7071 17.2071C24.8946 17.0196 25 16.7652 25 16.5C25 16.3674 25.0527 16.2402 25.1465 16.1465C25.9808 15.4032 27.0071 14.9091 28.1085 14.7205C28.7305 14.587 29.3639 14.5131 30 14.5C30.1326 14.5 30.2598 14.5527 30.3536 14.6464C30.4473 14.7402 30.5 14.8674 30.5 15V18C30.4988 18.9279 30.1297 19.8174 29.4736 20.4736C28.8174 21.1297 27.9279 21.4988 27 21.5ZM24.5365 18.427C24.6431 19.044 24.9774 19.5986 25.4732 19.981C25.9691 20.3634 26.5904 20.5458 27.2143 20.4922C27.8382 20.4385 28.4192 20.1527 28.8424 19.6912C29.2657 19.2297 29.5003 18.6262 29.5 18V15.526C29.1016 15.5588 28.7057 15.6166 28.3145 15.699C27.4658 15.8454 26.6663 16.199 25.987 16.7285C25.941 17.1236 25.7785 17.496 25.5202 17.7984C25.2619 18.1009 24.9195 18.3197 24.5365 18.427Z"
        fill="#B3703C"
      />
      <path
        d="M24 18.5C23.4695 18.5 22.9608 18.2893 22.5858 17.9142C22.2107 17.5391 22 17.0304 22 16.5C21.9953 15.9762 22.095 15.4568 22.2935 14.972C23.337 12.4645 26.8315 11.7625 28.8215 11.5675C29.518 11.5 29.9805 11.5 30 11.5C30.5304 11.5 31.0391 11.7107 31.4142 12.0858C31.7893 12.4609 32 12.9696 32 13.5C32 14.0304 31.7893 14.5391 31.4142 14.9142C31.0391 15.2893 30.5304 15.5 30 15.5C29.4332 15.5143 28.8689 15.5813 28.3145 15.7C27.4657 15.8464 26.6663 16.2 25.987 16.7295C25.93 17.2167 25.6963 17.6661 25.33 17.9925C24.9638 18.3188 24.4905 18.4994 24 18.5ZM30 12.5C29.996 12.5 29.562 12.5 28.9175 12.5625C27.496 12.702 24.092 13.2535 23.2175 15.357C23.0689 15.7195 22.9949 16.1083 23 16.5C23 16.7652 23.1053 17.0196 23.2929 17.2071C23.4804 17.3946 23.7348 17.5 24 17.5C24.2652 17.5 24.5195 17.3946 24.7071 17.2071C24.8946 17.0196 25 16.7652 25 16.5C25 16.3674 25.0527 16.2402 25.1465 16.1465C25.9808 15.4032 27.0071 14.9091 28.1085 14.7205C28.7305 14.587 29.3639 14.5131 30 14.5C30.2652 14.5 30.5195 14.3946 30.7071 14.2071C30.8946 14.0196 31 13.7652 31 13.5C31 13.2348 30.8946 12.9804 30.7071 12.7929C30.5195 12.6054 30.2652 12.5 30 12.5Z"
        fill="#B3703C"
      />
      <path
        d="M22.755 15.6651C22.68 15.6651 22.6059 15.6481 22.5383 15.6156C22.4707 15.5831 22.4113 15.5357 22.3645 15.4771C21.801 14.7749 21.4958 13.9004 21.5 13.0001C21.5043 12.0357 21.857 11.1053 22.493 10.3802C23.129 9.65523 24.0055 9.18442 24.9612 9.05452C25.9169 8.92463 26.8873 9.14439 27.6937 9.67334C28.5002 10.2023 29.0884 11.0048 29.35 11.9331C29.3692 12.0033 29.3728 12.0769 29.3606 12.1486C29.3485 12.2204 29.3208 12.2886 29.2795 12.3486C29.2382 12.4085 29.1843 12.4587 29.1216 12.4957C29.0589 12.5327 28.9889 12.5555 28.9165 12.5626C27.4935 12.7021 24.0895 13.2536 23.2165 15.3571C23.1831 15.4373 23.1294 15.5074 23.0607 15.5606C22.9919 15.6137 22.9105 15.648 22.8245 15.6601C22.8015 15.6635 22.7782 15.6652 22.755 15.6651ZM25.5 10.0001C24.7046 10.0009 23.942 10.3172 23.3795 10.8796C22.8171 11.4421 22.5008 12.2047 22.5 13.0001C22.4985 13.4063 22.5806 13.8084 22.741 14.1816C23.959 12.5246 26.4065 11.8876 28.175 11.6436C27.9241 11.1495 27.5415 10.7345 27.0694 10.4444C26.5972 10.1544 26.0541 10.0006 25.5 10.0001Z"
        fill="#B3703C"
      />
      <path
        d="M12.5 18.0001V17.0001C13.4703 17.0068 14.438 16.8967 15.382 16.6721L15.618 17.6436C14.5968 17.8874 13.5499 18.0071 12.5 18.0001Z"
        fill="#B3703C"
      />
      <path
        d="M17.6855 16.9645L17.3145 16.0355C17.495 15.9635 17.6705 15.891 17.8425 15.8205C18.8281 15.3348 19.9026 15.0556 21 15C22.582 15 23 15.981 23 16.5H22.5L22 16.514C21.994 16.4285 21.92 16 21 16C20.0337 16.0593 19.0892 16.3127 18.223 16.745C18.0487 16.817 17.8695 16.8902 17.6855 16.9645Z"
        fill="#B3703C"
      />
      <path
        d="M27 25H20.5C20.3674 25 20.2403 24.9473 20.1465 24.8535L18.1465 22.8535C18.0528 22.7597 18.0001 22.6326 18.0001 22.5C18.0001 22.3674 18.0528 22.2402 18.1465 22.1465L21.6465 18.6465L22.3535 19.3535L19.207 22.5L20.707 24H27C27.1326 24 27.2598 23.9473 27.3536 23.8535C27.4473 23.7598 27.5 23.6326 27.5 23.5C27.5 23.3674 27.4473 23.2402 27.3536 23.1464C27.2598 23.0527 27.1326 23 27 23H21.5C21.4011 23 21.3045 22.9706 21.2223 22.9157C21.1401 22.8607 21.076 22.7827 21.0382 22.6913C21.0003 22.6 20.9904 22.4994 21.0097 22.4025C21.029 22.3055 21.0766 22.2164 21.1465 22.1465L23.1465 20.1465L23.8535 20.8535L22.707 22H27C27.3978 22 27.7794 22.158 28.0607 22.4393C28.342 22.7206 28.5 23.1022 28.5 23.5C28.5 23.8978 28.342 24.2793 28.0607 24.5606C27.7794 24.8419 27.3978 25 27 25Z"
        fill="#B3703C"
      />
      <path d="M26.5 22.5H25.5V24.5H26.5V22.5Z" fill="#B3703C" />
      <path
        d="M25.1465 20.1464L23.1465 22.1465L23.8536 22.8536L25.8536 20.8535L25.1465 20.1464Z"
        fill="#B3703C"
      />
      <path
        d="M31.5 26.5H12.5V25.5H31V24.5H27.5V23.5H31.5C31.6326 23.5 31.7598 23.5527 31.8536 23.6464C31.9473 23.7402 32 23.8674 32 24V26C32 26.1326 31.9473 26.2598 31.8536 26.3536C31.7598 26.4473 31.6326 26.5 31.5 26.5Z"
        fill="#B3703C"
      />
      <path
        d="M12.5 30H0.5C0.367392 30 0.240215 29.9473 0.146447 29.8536C0.0526784 29.7598 0 29.6326 0 29.5V16.5C0 16.3674 0.0526784 16.2402 0.146447 16.1464C0.240215 16.0527 0.367392 16 0.5 16H6.5V17H1V29H12V17H8.5V16H12.5C12.6326 16 12.7598 16.0527 12.8536 16.1464C12.9473 16.2402 13 16.3674 13 16.5V29.5C13 29.6326 12.9473 29.7598 12.8536 29.8536C12.7598 29.9473 12.6326 30 12.5 30Z"
        fill="#B3703C"
      />
      <path d="M12.5 27H0.5V28H12.5V27Z" fill="#B3703C" />
      <path d="M20 23.5H12.5V24.5H20V23.5Z" fill="#B3703C" />
      <path
        d="M11 23.0001C3.723 23.0001 2.092 18.3561 2.026 18.1581L2.976 17.8401C3.0315 18.0101 4.477 22.0001 11 22.0001V23.0001Z"
        fill="#B3703C"
      />
      <path
        d="M11 25.5C4.83698 25.5 2.22398 22.45 2.11548 22.3205L2.88298 21.678C2.90648 21.7065 5.33648 24.5 11 24.5V25.5Z"
        fill="#B3703C"
      />
      <path
        d="M30.5 32H1.5C1.36739 32 1.24021 31.9473 1.14645 31.8536C1.05268 31.7598 1 31.6326 1 31.5V29.5H2V31H30V26H31V31.5C31 31.6326 30.9473 31.7598 30.8536 31.8536C30.7598 31.9473 30.6326 32 30.5 32Z"
        fill="#B3703C"
      />
      <path
        d="M12 11C11.0721 10.9989 10.1824 10.6299 9.5263 9.9737C8.87015 9.31756 8.50106 8.42793 8.5 7.5V5C8.5 4.86739 8.55268 4.74021 8.64645 4.64645C8.74021 4.55268 8.86739 4.5 9 4.5C9.02 4.5 11 4.467 11 3.5C11 3.36739 11.0527 3.24021 11.1464 3.14645C11.2402 3.05268 11.3674 3 11.5 3C11.6326 3 11.7598 3.05268 11.8536 3.14645C11.9473 3.24021 12 3.36739 12 3.5C12 3.5 12.1575 4.5 15 4.5C15.1326 4.5 15.2598 4.55268 15.3536 4.64645C15.4473 4.74021 15.5 4.86739 15.5 5V7.5C15.4989 8.42793 15.1299 9.31756 14.4737 9.9737C13.8176 10.6299 12.9279 10.9989 12 11ZM9.5 5.474V7.5C9.5 8.16304 9.76339 8.79893 10.2322 9.26777C10.7011 9.73661 11.337 10 12 10C12.663 10 13.2989 9.73661 13.7678 9.26777C14.2366 8.79893 14.5 8.16304 14.5 7.5V5.4895C12.923 5.421 12.0555 5.03 11.579 4.6105C11.0072 5.13081 10.2722 5.43608 9.5 5.474Z"
        fill="#B3703C"
      />
      <path
        d="M17 5.5H16V5C16 3.93913 15.5786 2.92172 14.8284 2.17157C14.0783 1.42143 13.0609 1 12 1C10.9391 1 9.92172 1.42143 9.17157 2.17157C8.42143 2.92172 8 3.93913 8 5V5.5H7V5C7 3.67392 7.52678 2.40215 8.46447 1.46447C9.40215 0.526784 10.6739 0 12 0C13.3261 0 14.5979 0.526784 15.5355 1.46447C16.4732 2.40215 17 3.67392 17 5V5.5Z"
        fill="#B3703C"
      />
      <path
        d="M15.5 8H15V7H15.5C15.6326 7 15.7598 6.94732 15.8536 6.85355C15.9473 6.75979 16 6.63261 16 6.5V6H15V5H16.5C16.6326 5 16.7598 5.05268 16.8536 5.14645C16.9473 5.24021 17 5.36739 17 5.5V6.5C17 6.89782 16.842 7.27936 16.5607 7.56066C16.2794 7.84196 15.8978 8 15.5 8Z"
        fill="#B3703C"
      />
      <path
        d="M9 8H8.5C8.10218 8 7.72064 7.84196 7.43934 7.56066C7.15804 7.27936 7 6.89782 7 6.5V5.5C7 5.36739 7.05268 5.24021 7.14645 5.14645C7.24021 5.05268 7.36739 5 7.5 5H9V6H8V6.5C8 6.63261 8.05268 6.75979 8.14645 6.85355C8.24021 6.94732 8.36739 7 8.5 7H9V8Z"
        fill="#B3703C"
      />
      <path
        d="M7.5 20C7.10218 20 6.72064 19.842 6.43934 19.5607C6.15804 19.2794 6 18.8978 6 18.5V12.5C6.00002 12.3863 6.03882 12.2759 6.10999 12.1872C6.18117 12.0985 6.28047 12.0367 6.3915 12.012L10.5 11.1V10H11.5V11.5C11.5 11.6137 11.4612 11.7241 11.39 11.8128C11.3188 11.9015 11.2195 11.9633 11.1085 11.988L7 12.9V18.5C7 18.6326 7.05268 18.7598 7.14645 18.8536C7.24021 18.9473 7.36739 19 7.5 19C7.63261 19 7.75979 18.9473 7.85355 18.8536C7.94732 18.7598 8 18.6326 8 18.5V14H9V18.5C9 18.8978 8.84196 19.2794 8.56066 19.5607C8.27936 19.842 7.89782 20 7.5 20Z"
        fill="#B3703C"
      />
      <path
        d="M16.5 20C16.1022 20 15.7206 19.842 15.4393 19.5607C15.158 19.2794 15 18.8978 15 18.5V14H16V18.5C16 18.6326 16.0527 18.7598 16.1464 18.8536C16.2402 18.9473 16.3674 19 16.5 19C16.6326 19 16.7598 18.9473 16.8536 18.8536C16.9473 18.7598 17 18.6326 17 18.5V12.9L12.8915 11.987C12.7806 11.9624 12.6815 11.9007 12.6103 11.8122C12.5391 11.7237 12.5002 11.6136 12.5 11.5V10H13.5V11.1L17.6085 12.013C17.7194 12.0376 17.8185 12.0993 17.8897 12.1878C17.9608 12.2763 17.9998 12.3864 18 12.5V18.5C18 18.8978 17.842 19.2794 17.5607 19.5607C17.2794 19.842 16.8978 20 16.5 20Z"
        fill="#B3703C"
      />
      <path d="M8.5 17H6.5V18H8.5V17Z" fill="#B3703C" />
      <path d="M17.5 17H15.5V18H17.5V17Z" fill="#B3703C" />
      <path
        d="M12 14.5C11.602 14.5151 11.2051 14.4478 10.8343 14.3024C10.4635 14.157 10.1268 13.9365 9.84512 13.6549C9.56348 13.3732 9.34304 13.0365 9.19761 12.6657C9.05219 12.2949 8.98491 11.898 9 11.5H9.5H10C9.98952 11.7655 10.0341 12.0302 10.1309 12.2776C10.2277 12.525 10.3746 12.7497 10.5625 12.9375C10.7503 13.1254 10.975 13.2723 11.2224 13.3691C11.4698 13.4659 11.7345 13.5105 12 13.5C13.977 13.5 14 11.5815 14 11.5H15C15.0151 11.898 14.9478 12.2949 14.8024 12.6657C14.657 13.0365 14.4365 13.3732 14.1549 13.6549C13.8732 13.9365 13.5365 14.157 13.1657 14.3024C12.7949 14.4478 12.398 14.5151 12 14.5Z"
        fill="#B3703C"
      />
    </svg>

