 <svg
      width="32"
      height="32"
      viewBox="0 0 32 32"
      fill="none"
      xmlns="http://www.w3.org/2000/svg"
    >
      <path
        d="M16.4287 13.5378C15.7957 12.9257 15.4475 12.1118 15.4475 11.2461C15.4475 9.45902 16.9503 8.00516 18.7976 8.00516C19.6922 8.00516 20.534 8.34233 21.167 8.9547L21.9464 8.20017C21.1046 7.3868 19.9866 6.93872 18.7976 6.93872C16.3426 6.93872 14.3451 8.87112 14.3451 11.2461C14.3451 12.3967 14.808 13.4782 15.6493 14.2918L16.4287 13.5378Z"
        fill="#B3703C"
      />
      <path
        d="M16.5401 16.7178C16.5401 17.4828 16.2323 18.2019 15.6735 18.7427L13.3913 20.9503L14.1707 21.7043L16.4529 19.4967C17.22 18.7544 17.6425 17.7673 17.6425 16.7178V16.1841H16.5401V16.7178H16.5401Z"
        fill="#B3703C"
      />
      <path
        d="M12.8397 21.4843L11.7363 22.5518L12.5157 23.3058L13.6191 22.2383L12.8397 21.4843Z"
        fill="#B3703C"
      />
      <path
        d="M16.9413 14.0338L16.1618 14.7878L16.7136 15.3216L17.493 14.5676L16.9413 14.0338Z"
        fill="#B3703C"
      />
      <path
        d="M11.0343 6.93872H9.93087V8.00516H11.0343V6.93872Z"
        fill="#B3703C"
      />
      <path
        d="M12.1377 9.07397H11.0343V10.1404H12.1377V9.07397Z"
        fill="#B3703C"
      />
      <path
        d="M13.2412 6.93872H12.1377V8.00516H13.2412V6.93872Z"
        fill="#B3703C"
      />
      <path
        d="M1.10235 17.834L6.67211 12.4457C6.80564 13.3291 7.22191 14.1455 7.88602 14.7878C7.94022 14.8402 7.9899 14.8964 8.03986 14.9524L6.78259 16.1687C6.67924 16.2687 6.62111 16.4043 6.62111 16.5457V18.6807C6.62111 18.9752 6.86763 19.2139 7.17228 19.2139H7.724C7.8704 19.2139 8.01035 19.1577 8.1137 19.0577L11.9569 15.3402C12.2168 15.0885 12.5769 14.944 12.9456 14.944C13.7175 14.944 14.3451 15.5514 14.3451 16.2979C14.3451 16.6543 14.196 17.0032 13.9355 17.2552L8.98945 22.0399C8.88611 22.1398 8.82797 22.2755 8.82797 22.4169V25.0614V32H9.93033V28.7404C11.2004 30.6942 13.4428 31.9995 15.9997 31.9995C18.5568 31.9995 20.7994 30.6942 22.0697 28.7402V32H23.172V25.0614V17.6132C23.172 17.4718 23.1139 17.3362 23.0105 17.2362L18.0645 12.4515C17.8002 12.1956 17.6543 11.8556 17.6543 11.4939C17.6543 10.7475 18.2825 10.1403 19.0543 10.1403C19.4279 10.1403 19.7794 10.2812 20.0437 10.5366L23.8863 14.254C23.9896 14.354 24.1296 14.4102 24.276 14.4102H24.8277C25.1324 14.4102 25.3789 14.1715 25.3789 13.877V11.742C25.3789 11.6007 25.3208 11.465 25.2174 11.365L23.172 9.3863V5.55661L30.8976 13.0303V32H32V12.8095C32 12.6681 31.9419 12.5325 31.8385 12.4325L23.172 4.04862V1.86757C23.172 0.837844 22.306 0 21.2413 0C20.7008 0 20.213 0.217501 19.8622 0.565112C19.5114 0.217501 19.0235 0 18.4827 0C17.942 0 17.454 0.217501 17.1032 0.565112C16.7524 0.217501 16.2646 0 15.7241 0C15.1834 0 14.6955 0.217501 14.3446 0.565112C13.9938 0.217501 13.506 0 12.9656 0C12.2998 0 11.7119 0.3276 11.3646 0.824828C10.8623 0.318615 10.1599 0 9.37915 0C7.85857 0 6.62111 1.19688 6.62111 2.66819V10.987L0.161478 17.2362C0.0581326 17.3362 0 17.4718 0 17.6132V32H1.10235V17.834ZM7.72347 17.9272V16.7665L8.61927 15.8999C8.73866 16.2082 8.80769 16.5339 8.82159 16.865L7.72347 17.9272ZM24.2765 11.9628V13.1235L23.172 12.0549V10.8943L24.2765 11.9628ZM7.72347 2.66819C7.72347 1.78504 8.46626 1.06644 9.37915 1.06644C10.292 1.06644 11.0348 1.78504 11.0348 2.66819V5.87064H12.1372V2.66819V1.86757C12.1372 1.42574 12.5086 1.06644 12.9656 1.06644C13.422 1.06644 13.7934 1.42574 13.7934 1.86757V5.87063H14.8958V1.86757C14.8958 1.42574 15.2672 1.06644 15.7241 1.06644C16.1806 1.06644 16.552 1.42574 16.552 1.86757V5.87063H17.6543V1.86757C17.6543 1.42574 18.0257 1.06644 18.4827 1.06644C18.9397 1.06644 19.3111 1.42574 19.3111 1.86757V5.87063H20.4134V1.86757C20.4134 1.42574 20.7848 1.06644 21.2413 1.06644C21.6983 1.06644 22.0697 1.42574 22.0697 1.86757V10.9884L20.8231 9.7823C20.3505 9.32537 19.7223 9.07386 19.0543 9.07386C17.6748 9.07386 16.552 10.1596 16.552 11.4939C16.552 12.1404 16.8125 12.7483 17.2851 13.2055L22.0697 17.834V25.0614C22.0697 28.299 19.3466 30.933 15.9997 30.933C12.6528 30.933 9.93033 28.299 9.93033 25.0614V22.6377L14.7149 18.0092C15.1875 17.5518 15.4475 16.9441 15.4475 16.2979C15.4475 14.9632 14.3252 13.8775 12.9456 13.8775C12.2771 13.8775 11.6484 14.1293 11.1769 14.5865L9.78668 15.9314C9.59573 15.2205 9.21676 14.5671 8.66542 14.0337C8.05773 13.4461 7.72347 12.6648 7.72347 11.8334V2.66819Z"
        fill="#B3703C"
      />
    </svg>


