 <svg
      width="32"
      height="32"
      viewBox="0 0 32 32"
      fill="none"
      xmlns="http://www.w3.org/2000/svg"
    >
      <path
        d="M30.3938 21.9622H29.8793C29.9951 21.7188 30.0651 21.4499 30.0651 21.1632C30.0651 20.1272 29.2182 19.2839 28.1772 19.2839H16.1945C15.3456 19.2839 14.5485 18.8702 14.0614 18.1773C13.4882 17.3644 12.3531 17.1559 11.5288 17.7121C11.5281 17.7128 11.5267 17.7134 11.5261 17.7141C11.4671 17.7543 11.4095 17.7985 11.3538 17.846C10.6084 18.4907 10.507 19.5973 11.1226 20.3654L12.1583 21.6587C12.2492 21.7724 12.3606 21.8613 12.4625 21.9622H11.5615L7.18893 16.6257L9.41735 12.0143C9.71045 11.745 10.3623 11.6409 11.0623 11.9774C11.7905 12.3264 12.1205 12.9342 12.0622 13.3287C12.0271 13.563 12.149 13.7919 12.363 13.8948C12.5758 13.9978 12.8329 13.9496 12.9952 13.7774C13.2695 13.4857 13.9521 13.3643 14.6797 13.7141C15.4205 14.0697 15.8552 14.7659 15.6286 15.2344C15.5961 15.3017 15.5788 15.3724 15.5754 15.4425C15.565 15.6531 15.6794 15.8592 15.8817 15.9562C15.9579 15.9925 16.0381 16.0097 16.1169 16.0097C16.319 16.0097 16.5132 15.8975 16.6066 15.7042C18.5932 11.6006 16.9934 6.69407 13.0587 4.49338L13.4312 3.72394C13.5611 3.45475 13.4478 3.13203 13.1781 3.00208C12.9084 2.87469 12.5836 2.98627 12.4531 3.25414L12.0809 4.02302C10.133 3.23237 7.99095 3.16621 5.989 3.86249C3.81351 4.61931 2.06414 6.17462 1.06351 8.24189C0.933636 8.51108 1.04694 8.83381 1.31664 8.96376C1.58962 9.09378 1.9117 8.98158 2.04157 8.71169C2.17277 8.43986 2.48357 8.34611 2.65717 8.31449C3.0117 8.24917 3.44039 8.31844 3.82612 8.50387C4.55369 8.85294 4.88433 9.4613 4.82674 9.85593C4.79165 10.0895 4.91421 10.3185 5.12758 10.4214C5.34095 10.525 5.59743 10.4762 5.75975 10.304C6.03273 10.0123 6.71797 9.89088 7.44423 10.2406C8.14611 10.577 8.46909 11.1497 8.43991 11.5444L6.43127 15.701L6.07319 15.264L6.13148 15.2225C6.35084 15.0661 6.49597 14.8345 6.5397 14.5706C6.58343 14.306 6.52048 14.0401 6.36275 13.8223L4.76115 11.6105C4.57298 11.3506 4.26811 11.1948 3.94541 11.1948H1.15237C0.768663 11.1948 0.424095 11.4067 0.252507 11.7485C0.081546 12.0903 0.117967 12.4921 0.348607 12.7969L4.95578 18.9041L3.55794 21.9622H1.32068C0.59241 21.9622 0 22.5521 0 23.2779V24.5567C0 25.2819 0.59241 25.8718 1.32068 25.8718H6.94812L3.56637 31.1697C3.45968 31.336 3.45307 31.5465 3.54847 31.7194C3.64387 31.8923 3.82612 31.9998 4.02424 31.9998H7.13601C7.32222 31.9998 7.49583 31.9048 7.5952 31.7478L11.3199 25.8718H20.4242L24.1488 31.7478C24.2482 31.9048 24.4218 31.9998 24.608 31.9998H27.7198C27.9179 31.9998 28.1002 31.8923 28.1956 31.7194C28.291 31.5465 28.2843 31.336 28.1777 31.1697L24.7959 25.8718H30.3935C31.1218 25.8718 31.7142 25.2819 31.7142 24.5567V23.2779C31.7144 22.5521 31.122 21.9622 30.3938 21.9622ZM5.78559 9.06153C5.55098 8.44326 5.01825 7.87575 4.29791 7.53001C3.88621 7.33182 3.44917 7.2303 3.02598 7.21671C3.89415 6.16186 5.02145 5.34471 6.34687 4.8833C8.24736 4.22149 10.2956 4.33562 12.11 5.20797C13.9249 6.07899 15.2901 7.60192 15.9547 9.49569C16.418 10.8156 16.4779 12.2026 16.1902 13.5355C15.9219 13.2229 15.5767 12.9444 15.1515 12.7401C14.4326 12.3944 13.6553 12.3323 13.0218 12.535C12.7872 11.9167 12.2545 11.3492 11.5341 11.0034C10.8152 10.659 10.0392 10.5976 9.4037 10.7982C9.16909 10.18 8.63636 9.61246 7.91602 9.26672C7.19569 8.92166 6.41978 8.86092 5.78559 9.06153ZM13.0078 20.985L11.9715 19.6911C11.7203 19.3776 11.7614 18.9257 12.0655 18.6631L12.1411 18.605C12.477 18.3787 12.9389 18.4658 13.1722 18.7977C13.862 19.7789 14.9918 20.3649 16.1945 20.3649H28.1772C28.6198 20.3649 28.9796 20.7232 28.9796 21.1633C28.9796 21.6041 28.6198 21.9624 28.1772 21.9624H15.0442C14.2463 21.9622 13.5041 21.6059 13.0078 20.985ZM3.8805 12.2427L5.5007 14.3429L4.97124 14.7197C4.84931 14.8062 4.76846 14.9394 4.74861 15.0872C4.72876 15.2357 4.77117 15.3848 4.86588 15.5009L10.1599 21.9621H8.62076L1.31205 12.2737L3.8805 12.2427ZM5.69868 19.889L7.26268 21.9622H4.75098L5.69868 19.889ZM6.83656 30.9191H5.01226L8.23371 25.8719H10.0359L6.83656 30.9191ZM26.732 30.9191H24.9077L21.7082 25.8719H23.5105L26.732 30.9191ZM30.629 24.5568C30.629 24.6861 30.5236 24.791 30.3938 24.791H1.32068C1.19081 24.791 1.08545 24.6861 1.08545 24.5568V23.278C1.08545 23.1487 1.19081 23.0431 1.32068 23.0431H3.72479C3.78733 23.0431 3.97062 23.0431 4.01428 23.0431H15.0442H28.1772H30.3938C30.5237 23.0431 30.6291 23.1487 30.6291 23.278V24.5568H30.629Z"
        fill="#B3703C"
      />
      <path
        d="M26.0474 8.57211C27.5125 8.57211 28.7039 7.38571 28.7039 5.92741C28.7039 4.46912 27.5125 3.28271 26.0474 3.28271C24.5829 3.28271 23.3915 4.46912 23.3915 5.92741C23.3915 7.38571 24.5829 8.57211 26.0474 8.57211ZM26.0474 4.36364C26.9135 4.36364 27.6186 5.06505 27.6186 5.92748C27.6186 6.78991 26.9135 7.49132 26.0474 7.49132C25.1813 7.49132 24.4769 6.78991 24.4769 5.92748C24.4769 5.06505 25.1813 4.36364 26.0474 4.36364Z"
        fill="#B3703C"
      />
      <path
        d="M26.0474 3.01943C26.3469 3.01943 26.5901 2.77728 26.5901 2.47903V0.540395C26.5901 0.242148 26.3469 0 26.0474 0C25.7479 0 25.5047 0.242148 25.5047 0.540395V2.47903C25.5047 2.77728 25.7479 3.01943 26.0474 3.01943Z"
        fill="#B3703C"
      />
      <path
        d="M23.2152 3.8713C23.3213 3.97691 23.4597 4.02968 23.5989 4.02968C23.7381 4.02968 23.8766 3.97691 23.9827 3.8713C24.1947 3.66015 24.1947 3.31835 23.9827 3.1072L22.6056 1.736C22.3936 1.52485 22.0503 1.52485 21.8383 1.736C21.6262 1.94715 21.6262 2.28895 21.8383 2.5001L23.2152 3.8713Z"
        fill="#B3703C"
      />
      <path
        d="M20.6375 6.468H22.5844C22.8839 6.468 23.1271 6.22585 23.1271 5.9276C23.1271 5.62936 22.8839 5.38721 22.5844 5.38721H20.6375C20.338 5.38721 20.0948 5.62936 20.0948 5.9276C20.0948 6.22585 20.338 6.468 20.6375 6.468Z"
        fill="#B3703C"
      />
      <path
        d="M23.2152 7.98332L21.8383 9.35445C21.6262 9.56561 21.6262 9.9074 21.8383 10.1186C21.9443 10.2242 22.0828 10.2769 22.222 10.2769C22.3612 10.2769 22.4996 10.2242 22.6057 10.1186L23.9827 8.74735C24.1948 8.5362 24.1948 8.19441 23.9827 7.98325C23.7705 7.77217 23.4273 7.77217 23.2152 7.98332Z"
        fill="#B3703C"
      />
      <path
        d="M25.5047 9.3756V11.3142C25.5047 11.6125 25.7479 11.8546 26.0474 11.8546C26.3469 11.8546 26.5901 11.6125 26.5901 11.3142V9.3756C26.5901 9.07735 26.3469 8.83521 26.0474 8.83521C25.7479 8.83521 25.5047 9.07735 25.5047 9.3756Z"
        fill="#B3703C"
      />
      <path
        d="M28.1129 7.98331C27.9008 8.19376 27.9008 8.53625 28.1129 8.7474L29.4892 10.1186C29.5952 10.2242 29.7337 10.277 29.8729 10.277C30.0121 10.277 30.1505 10.2242 30.2566 10.1186C30.4686 9.90814 30.4686 9.56565 30.2566 9.3545L28.8803 7.98338C28.6682 7.77216 28.3249 7.77215 28.1129 7.98331Z"
        fill="#B3703C"
      />
      <path
        d="M31.4573 5.38696H29.5105C29.2109 5.38696 28.9678 5.62911 28.9678 5.92736C28.9678 6.2256 29.2109 6.46775 29.5105 6.46775H31.4573C31.7568 6.46775 32 6.2256 32 5.92736C32 5.62911 31.7568 5.38696 31.4573 5.38696Z"
        fill="#B3703C"
      />
      <path
        d="M28.4966 4.02968C28.6357 4.02968 28.7742 3.97691 28.8803 3.8713L30.2566 2.5001C30.4687 2.28895 30.4687 1.94646 30.2566 1.736C30.0446 1.52485 29.7013 1.52485 29.4893 1.736L28.113 3.1072C27.9009 3.31835 27.9009 3.66084 28.113 3.8713C28.2189 3.97684 28.3575 4.02968 28.4966 4.02968Z"
        fill="#B3703C"
      />
      <path
        d="M10.0239 14.1743C8.91725 14.1743 8.01669 15.0711 8.01669 16.173C8.01669 17.2756 8.91725 18.1723 10.0239 18.1723C11.1305 18.1723 12.031 17.2756 12.031 16.173C12.031 15.0711 11.1305 14.1743 10.0239 14.1743ZM10.0239 17.0915C9.51565 17.0915 9.10214 16.6791 9.10214 16.173C9.10214 15.6669 9.51565 15.2552 10.0239 15.2552C10.5322 15.2552 10.9456 15.6669 10.9456 16.173C10.9456 16.6791 10.5322 17.0915 10.0239 17.0915Z"
        fill="#B3703C"
      />
    </svg>


